<?xml version="1.0" encoding="UTF-8"?>
<svg xmlns="http://www.w3.org/2000/svg" viewBox="0 0 512 512" width="512px" height="512px">
<defs>
<linearGradient id="linear0" gradientUnits="userSpaceOnUse" x1="86" y1="67.759941" x2="86" y2="98.690376" gradientTransform="matrix(8,0,0,8,0,0)">
<stop offset="0" style="stop-color:rgb(54.11765%,70.588237%,100%);stop-opacity:1;"/>
<stop offset="1" style="stop-color:rgb(89.411765%,57.254905%,100%);stop-opacity:1;"/>
</linearGradient>
<linearGradient id="linear1" gradientUnits="userSpaceOnUse" x1="86" y1="19.95738" x2="86" y2="143.619995" gradientTransform="matrix(2.976744,0,0,2.976744,0,0)">
<stop offset="0" style="stop-color:rgb(10.196079%,42.745098%,100%);stop-opacity:1;"/>
<stop offset="1" style="stop-color:rgb(78.431374%,13.333334%,100%);stop-opacity:1;"/>
</linearGradient>
</defs>
<g id="surface40835856">
<path style=" stroke:none;fill-rule:nonzero;fill:url(#linear0);" d="M 304 256 C 304 282.507812 282.507812 304 256 304 C 229.492188 304 208 282.507812 208 256 C 208 229.492188 229.492188 208 256 208 C 282.507812 208 304 229.492188 304 256 Z M 304 256 "/>
<path style=" stroke:none;fill-rule:nonzero;fill:url(#linear1);" d="M 464 256 C 464 225.9375 430.054688 199.863281 377.175781 184.0625 C 378.945312 175.816406 380.433594 167.703125 381.367188 159.945312 C 386.625 116.078125 377.503906 85.359375 355.679688 73.441406 C 333.847656 61.527344 303.089844 70.464844 269.03125 98.609375 C 264.679688 102.199219 260.335938 106.113281 256 110.207031 C 251.664062 106.105469 247.320312 102.199219 242.96875 98.609375 C 208.910156 70.464844 178.136719 61.535156 156.320312 73.441406 C 134.496094 85.351562 125.375 116.070312 130.632812 159.945312 C 131.558594 167.710938 133.054688 175.816406 134.824219 184.0625 C 81.945312 199.863281 48 225.9375 48 256 C 48 286.0625 81.945312 312.136719 134.824219 327.9375 C 133.054688 336.183594 131.566406 344.296875 130.632812 352.054688 C 125.375 395.921875 134.496094 426.640625 156.320312 438.558594 C 162.632812 442.007812 169.679688 443.703125 177.34375 443.703125 C 196.199219 443.703125 218.761719 433.40625 242.96875 413.398438 C 247.320312 409.808594 251.664062 405.894531 256 401.800781 C 260.335938 405.902344 264.679688 409.808594 269.03125 413.398438 C 293.238281 433.40625 315.800781 443.703125 334.65625 443.703125 C 342.320312 443.703125 349.375 442 355.679688 438.558594 C 377.503906 426.648438 386.625 395.929688 381.367188 352.054688 C 380.441406 344.289062 378.945312 336.183594 377.175781 327.9375 C 430.054688 312.136719 464 286.0625 464 256 Z M 279.214844 110.929688 C 307.457031 87.59375 332.535156 79.03125 348.007812 87.480469 C 363.480469 95.921875 369.839844 121.640625 365.480469 158.023438 C 364.640625 165.054688 363.296875 172.390625 361.726562 179.855469 C 344.792969 175.703125 326.289062 172.535156 306.59375 170.527344 C 294.078125 152.328125 280.871094 135.71875 267.328125 121.472656 C 271.28125 117.742188 275.246094 114.207031 279.214844 110.929688 Z M 319.191406 290.503906 C 312.367188 303 305.113281 314.945312 297.574219 326.296875 C 284.367188 327.398438 270.488281 328 256 328 C 241.511719 328 227.632812 327.398438 214.414062 326.296875 C 206.886719 314.9375 199.625 303 192.800781 290.503906 C 186.527344 279.023438 180.808594 267.480469 175.664062 256 C 180.808594 244.527344 186.527344 232.984375 192.800781 221.496094 C 199.625 209 206.878906 197.054688 214.414062 185.703125 C 227.632812 184.601562 241.511719 184 256 184 C 270.488281 184 284.367188 184.601562 297.585938 185.703125 C 305.113281 197.0625 312.375 209 319.199219 221.496094 C 325.472656 232.976562 331.191406 244.519531 336.335938 256 C 331.191406 267.472656 325.464844 279.015625 319.191406 290.503906 Z M 344.625 275.894531 C 350.0625 289.808594 354.527344 303.449219 358.03125 316.664062 C 345.679688 319.671875 332.351562 322.214844 317.960938 324.097656 C 323.214844 315.695312 328.359375 307.105469 333.230469 298.167969 C 337.289062 290.769531 341.03125 283.328125 344.625 275.894531 Z M 256 379.222656 C 245.824219 368.496094 235.824219 356.320312 226.167969 343.121094 C 235.894531 343.6875 245.839844 344 256 344 C 266.160156 344 276.105469 343.6875 285.832031 343.121094 C 276.175781 356.320312 266.175781 368.496094 256 379.222656 Z M 194.03125 324.097656 C 179.640625 322.214844 166.3125 319.671875 153.960938 316.664062 C 157.464844 303.449219 161.929688 289.800781 167.367188 275.894531 C 170.96875 283.335938 174.710938 290.769531 178.753906 298.175781 C 183.632812 307.105469 188.777344 315.695312 194.03125 324.097656 Z M 167.375 236.105469 C 161.9375 222.191406 157.472656 208.542969 153.96875 195.335938 C 166.320312 192.328125 179.648438 189.785156 194.039062 187.902344 C 188.785156 196.304688 183.640625 204.894531 178.769531 213.832031 C 174.710938 221.230469 170.96875 228.671875 167.375 236.105469 Z M 256 132.777344 C 266.175781 143.503906 276.175781 155.679688 285.832031 168.878906 C 276.105469 168.3125 266.160156 168 256 168 C 245.839844 168 235.894531 168.3125 226.167969 168.878906 C 235.824219 155.679688 245.824219 143.503906 256 132.777344 Z M 333.238281 213.832031 C 328.367188 204.902344 323.222656 196.3125 317.96875 187.902344 C 332.359375 189.785156 345.6875 192.328125 358.039062 195.335938 C 354.535156 208.550781 350.070312 222.199219 344.632812 236.105469 C 341.03125 228.671875 337.289062 221.230469 333.238281 213.832031 Z M 146.519531 158.03125 C 142.152344 121.640625 148.519531 95.921875 163.992188 87.488281 C 167.894531 85.351562 172.414062 84.3125 177.441406 84.3125 C 192.320312 84.3125 211.664062 93.488281 232.785156 110.9375 C 236.753906 114.214844 240.726562 117.753906 244.6875 121.488281 C 231.144531 135.734375 217.929688 152.335938 205.425781 170.542969 C 185.71875 172.550781 167.214844 175.726562 150.289062 179.871094 C 148.703125 172.398438 147.367188 165.0625 146.519531 158.03125 Z M 64 256 C 64 235.199219 91.761719 213.574219 138.535156 199.519531 C 143.382812 217.753906 150.03125 236.753906 158.304688 256 C 150.03125 275.257812 143.382812 294.257812 138.535156 312.480469 C 91.761719 298.425781 64 276.800781 64 256 Z M 232.785156 401.070312 C 204.542969 424.40625 179.488281 432.984375 163.992188 424.519531 C 148.519531 416.078125 142.160156 390.359375 146.519531 353.976562 C 147.359375 346.945312 148.703125 339.609375 150.273438 332.144531 C 167.207031 336.296875 185.710938 339.464844 205.40625 341.472656 C 217.921875 359.671875 231.128906 376.28125 244.671875 390.527344 C 240.71875 394.257812 236.753906 397.792969 232.785156 401.070312 Z M 365.480469 353.96875 C 369.847656 390.359375 363.480469 416.078125 348.007812 424.511719 C 332.535156 432.984375 307.464844 424.398438 279.214844 401.0625 C 275.246094 397.785156 271.273438 394.246094 267.3125 390.511719 C 280.855469 376.265625 294.070312 359.664062 306.574219 341.457031 C 326.28125 339.449219 344.785156 336.273438 361.710938 332.128906 C 363.296875 339.601562 364.632812 346.9375 365.480469 353.96875 Z M 373.464844 312.480469 C 368.617188 294.246094 361.96875 275.246094 353.695312 256 C 361.96875 236.742188 368.617188 217.742188 373.464844 199.519531 C 420.238281 213.574219 448 235.199219 448 256 C 448 276.800781 420.238281 298.425781 373.464844 312.480469 Z M 373.464844 312.480469 "/>
</g>
</svg>
